<?xml version="1.0" encoding="iso-8859-1"?>
<!-- Uploaded to: SVG Repo, www.svgrepo.com, Generator: SVG Repo Mixer Tools -->
<svg height="800px" width="800px" version="1.1" id="Layer_1" xmlns="http://www.w3.org/2000/svg" xmlns:xlink="http://www.w3.org/1999/xlink" 
	 viewBox="0 0 390.638 390.638" xml:space="preserve">
<polygon style="fill:#FFFFFF;" points="140.101,75.68 88.06,225.789 140.101,255.074 "/>
<polygon style="fill:#56ACE0;" points="30.589,319.009 60.973,368.916 329.773,368.916 360.157,319.009 "/>
<path style="fill:#FFC10D;" d="M161.757,35.017v90.505h41.18c5.947,0,10.861,4.848,10.861,10.861
	c0,6.012-4.848,10.861-10.861,10.861h-41.18V168.9h19.523c5.947,0,10.861,4.848,10.861,10.861c0,5.947-4.848,10.861-10.861,10.861
	h-19.523v76.412c39.564-31.418,94.836-44.994,117.075-49.325C272.303,144.011,196.989,67.017,161.757,35.017z"/>
<path style="fill:#194F82;" d="M379.616,297.353H161.757v-1.099c42.279-45.511,128.97-58.505,130.069-58.505
	c5.43-0.517,9.244-5.43,9.244-10.861C299.971,117.959,163.438,7.413,158.008,2.5c-4.848-4.331-14.093-3.232-16.808,4.848
	L64.787,227.47c-1.616,4.848,0.517,10.279,4.848,12.994l70.465,39.564v17.325H11.131c-8.145,0-14.093,9.244-9.244,16.291
	l43.895,71.564c2.198,3.232,5.43,5.43,9.244,5.43h280.76c3.814,0,7.046-2.198,9.244-5.43l43.895-71.564
	C393.191,306.015,388.343,297.353,379.616,297.353z M60.973,368.916l-30.901-49.842h329.503l-30.901,49.842H60.973z
	 M161.757,267.034v-76.412h19.523c5.947,0,10.861-4.848,10.861-10.861c0-5.947-4.848-10.861-10.861-10.861h-19.523v-21.657h41.18
	c5.947,0,10.861-4.848,10.861-10.861s-4.848-10.861-10.861-10.861h-41.18V35.017c35.232,32,110.545,108.929,117.075,182.626
	C256.594,222.04,201.321,235.551,161.757,267.034z M140.101,75.68v179.394l-52.04-29.285L140.101,75.68z"/>
</svg>