<?xml version="1.0" encoding="iso-8859-1"?>
<!-- Uploaded to: SVG Repo, www.svgrepo.com, Generator: SVG Repo Mixer Tools -->
<svg version="1.1" id="Layer_1" xmlns="http://www.w3.org/2000/svg" xmlns:xlink="http://www.w3.org/1999/xlink" 
	 viewBox="0 0 511.986 511.986" xml:space="preserve">
<g>
	<path style="fill:#434A54;" d="M255.991,240.056c-5.891,0-10.664-4.773-10.664-10.664V48.008c0-5.891,4.773-10.664,10.664-10.664
		s10.664,4.773,10.664,10.664v181.384C266.655,235.283,261.882,240.056,255.991,240.056z"/>
	<path style="fill:#434A54;" d="M99.247,165.847c-5.609-1.797-11.609,1.297-13.406,6.906L0.508,439.393
		c-1.789,5.625,1.297,11.625,6.914,13.406c1.078,0.344,2.172,0.531,3.25,0.531c4.515,0,8.702-2.906,10.155-7.438l85.334-266.64
		C107.95,173.644,104.864,167.644,99.247,165.847z"/>
	<path style="fill:#434A54;" d="M511.482,439.393l-85.342-266.64c-1.796-5.609-7.796-8.703-13.405-6.906
		c-5.624,1.797-8.702,7.797-6.905,13.406l85.325,266.64c1.452,4.531,5.64,7.438,10.155,7.438c1.078,0,2.172-0.188,3.25-0.531
		C510.17,451.018,513.264,445.018,511.482,439.393z"/>
</g>
<path style="fill:#AC92EB;" d="M421.891,167.129L261.905,60.468c-3.578-2.391-8.25-2.391-11.828,0L90.083,167.129
	c-2.969,1.977-4.75,5.312-4.75,8.875v266.64c0,5.906,4.773,10.688,10.664,10.688h319.988c5.891,0,10.655-4.781,10.655-10.688
	v-266.64C426.64,172.441,424.859,169.105,421.891,167.129z"/>
<rect x="170.653" y="234.453" style="fill:#434A54;" width="174.02" height="218.88"/>
<g>
	<path style="fill:#967ADC;" d="M261.905,60.468c-3.578-2.391-8.25-2.391-11.828,0l-4.75,3.164v165.76
		c0,5.891,4.773,10.664,10.664,10.664c5.891,0,10.664-4.773,10.664-10.664V63.632L261.905,60.468z"/>
	<rect x="85.333" y="218.733" style="fill:#967ADC;" width="341.31" height="21.328"/>
	<path style="fill:#967ADC;" d="M426.64,325.335h-74.652c-5.891,0-10.656,4.75-10.656,10.656c0,5.875,4.766,10.656,10.656,10.656
		h74.652V325.335z"/>
</g>
<g>
	<path style="fill:#E6E9ED;" d="M255.991,229.392h-95.997v180.376C257.85,308.272,255.991,229.392,255.991,229.392z"/>
	<path style="fill:#E6E9ED;" d="M255.999,229.392c0,0-1.859,78.88,95.989,180.376l5.343,8.812l5.312-189.189L255.999,229.392
		L255.999,229.392z"/>
</g>
<path style="fill:#967ADC;" d="M85.333,346.647h74.661c5.891,0,10.664-4.781,10.664-10.656c0-5.906-4.773-10.656-10.664-10.656
	H85.333V346.647z"/>
<g>
	<path style="fill:#AAB2BC;" d="M159.994,218.728c-5.89,0-10.663,4.773-10.663,10.664v234.593c0,5.875,4.773,10.656,10.663,10.656
		c5.891,0,10.664-4.781,10.664-10.656V229.392C170.658,223.501,165.885,218.728,159.994,218.728z"/>
	<path style="fill:#AAB2BC;" d="M351.988,218.728c-5.891,0-10.656,4.773-10.656,10.664v234.593c0,5.875,4.766,10.656,10.656,10.656
		s10.654-4.781,10.654-10.656V229.392C362.642,223.501,357.878,218.728,351.988,218.728z"/>
</g>
<path style="fill:#CCD1D9;" d="M373.33,240.056H138.659c-5.891,0-10.664-4.773-10.664-10.664s4.773-10.664,10.664-10.664H373.33
	c5.875,0,10.656,4.773,10.656,10.664S379.205,240.056,373.33,240.056z"/>
</svg>