<?xml version="1.0" encoding="iso-8859-1"?>
<!-- Uploaded to: SVG Repo, www.svgrepo.com, Generator: SVG Repo Mixer Tools -->
<svg height="800px" width="800px" version="1.1" id="Layer_1" xmlns="http://www.w3.org/2000/svg" xmlns:xlink="http://www.w3.org/1999/xlink" 
	 viewBox="0 0 512 512" xml:space="preserve">
<path style="fill:#FFC477;" d="M97.141,275.899c-49.938-14.56-84.16-21.677-84.16-21.677v249.355h495.156l-2.018-222.696
	c0,0-106.862-47.11-134.399-47.11c-23.413,0-266.778,40.421-269.809,41.431L97.141,275.899z"/>
<circle style="fill:#FFDA44;" cx="428.32" cy="84.521" r="76.102"/>
<path style="fill:#DDB200;" d="M468.229,19.727c7.163,11.604,11.304,25.27,11.304,39.908c0,42.029-34.071,76.099-76.099,76.099
	c-14.637,0-28.304-4.141-39.908-11.304c13.403,21.714,37.404,36.192,64.796,36.192c42.029,0,76.099-34.071,76.099-76.099
	C504.421,57.131,489.943,33.128,468.229,19.727z"/>
<path d="M503.773,273.947c-11.045-4.87-108.389-47.424-137.123-47.746c-0.043-0.002-0.086-0.002-0.129-0.003
	c-0.067,0-0.138-0.005-0.204-0.005c-12.932,0-85.305,11.111-143.742,20.432c-48.689,7.766-125.611,20.438-128.465,21.389
	c-0.34,0.113-0.666,0.249-0.977,0.402c-49.325-14.342-83.599-21.528-84.012-21.614c-0.018-0.004-0.036-0.005-0.056-0.008
	c-0.231-0.046-0.463-0.081-0.695-0.105c-0.036-0.004-0.072-0.011-0.108-0.014c-0.271-0.024-0.542-0.035-0.812-0.03
	c-0.036,0.001-0.072,0.005-0.108,0.007c-0.224,0.007-0.449,0.022-0.671,0.05c-0.093,0.011-0.185,0.029-0.278,0.044
	c-0.166,0.026-0.331,0.055-0.495,0.092c-0.101,0.023-0.2,0.051-0.3,0.078c-0.157,0.042-0.311,0.089-0.466,0.141
	c-0.096,0.032-0.19,0.067-0.284,0.103c-0.161,0.062-0.317,0.13-0.474,0.203c-0.082,0.038-0.163,0.075-0.244,0.116
	c-0.175,0.089-0.345,0.188-0.513,0.291c-0.058,0.035-0.116,0.067-0.173,0.104c-0.219,0.142-0.433,0.295-0.638,0.462
	c-0.004,0.003-0.008,0.005-0.011,0.008l-0.001,0.001c-0.215,0.176-0.422,0.364-0.619,0.565c-0.024,0.024-0.044,0.052-0.069,0.077
	c-0.158,0.166-0.31,0.337-0.455,0.518c-0.066,0.083-0.123,0.17-0.186,0.255c-0.076,0.104-0.157,0.203-0.228,0.312
	c-0.018,0.028-0.032,0.059-0.051,0.087c-0.061,0.096-0.115,0.195-0.172,0.293c-0.08,0.139-0.159,0.278-0.229,0.42
	c-0.045,0.091-0.086,0.185-0.126,0.278c-0.07,0.157-0.136,0.314-0.194,0.474c-0.031,0.087-0.061,0.175-0.09,0.264
	c-0.056,0.172-0.105,0.345-0.149,0.518c-0.021,0.084-0.041,0.169-0.059,0.254c-0.038,0.184-0.069,0.368-0.094,0.553
	c-0.011,0.081-0.023,0.162-0.032,0.244c-0.02,0.203-0.03,0.405-0.034,0.608c0,0.054-0.008,0.106-0.008,0.159v249.355
	c0,4.186,3.393,7.579,7.579,7.579h495.156c2.022,0,3.96-0.807,5.383-2.244c1.424-1.436,2.214-3.381,2.195-5.403l-2.018-222.696
	C508.268,277.835,506.499,275.148,503.773,273.947z M15.158,496V268.354c33.93,22.693,135.73,91.9,228.947,166.553
	c1.399,1.12,3.071,1.663,4.733,1.663c2.222,0,4.423-0.972,5.921-2.842c2.616-3.267,2.089-8.037-1.178-10.653
	C176.042,360.978,92.626,302.654,46.839,271.46c65.088,16.882,195.051,55.655,293.218,117.278c3.545,2.226,8.223,1.156,10.448-2.39
	c2.225-3.545,1.156-8.223-2.39-10.448c-72.192-45.318-160.522-78.003-221.911-97.444c-0.551-0.175-1.104-0.35-1.653-0.522
	c60.326-10.186,204.441-33.358,236.765-36.277c4.319,10.386,15.12,34.533,30.775,57.081c1.472,2.121,3.832,3.257,6.232,3.257
	c1.492,0,2.998-0.44,4.316-1.354c3.438-2.387,4.291-7.11,1.903-10.548c-11.767-16.946-20.789-35.245-26.023-46.898
	c29.086,6.793,87.112,30.684,114.663,42.663l0.836,92.21c-36.457-15.372-74.473-61.493-74.887-62
	c-2.649-3.239-7.422-3.72-10.664-1.072c-3.241,2.649-3.722,7.421-1.074,10.662c1.879,2.3,44.661,54.226,86.772,68.673L495.087,496
	H15.158z"/>
<path d="M428.322,168.2c46.14,0,83.678-37.538,83.678-83.678S474.462,0.843,428.322,0.843s-83.678,37.538-83.678,83.678
	C344.644,130.663,382.182,168.2,428.322,168.2z M428.322,16.002c37.782,0,68.52,30.738,68.52,68.52s-30.738,68.52-68.52,68.52
	s-68.52-30.738-68.52-68.52C359.802,46.74,390.54,16.002,428.322,16.002z"/>
<g>
	<polygon style="opacity:0.15;fill:#663A00;enable-background:new    ;" points="13.019,254.224 13.019,503.579 347.464,503.579 	
		"/>
	<path style="opacity:0.15;fill:#663A00;enable-background:new    ;" d="M374.565,233.908c0,0,28.806,1.818,131.555,46.974
		l-4.425,107.822C501.694,388.704,382.397,334.032,374.565,233.908z"/>
	<path style="opacity:0.15;fill:#663A00;enable-background:new    ;" d="M124.239,271.297
		c0.388-0.066,128.825-20.972,128.825-20.972s-50.586,12.166,61.579,104.596l-94.335-44.882l-86.885-28.074L124.239,271.297z"/>
</g>
</svg>