<?xml version="1.0" encoding="iso-8859-1"?>
<!-- Uploaded to: SVG Repo, www.svgrepo.com, Generator: SVG Repo Mixer Tools -->
<svg height="800px" width="800px" version="1.1" id="Layer_1" xmlns="http://www.w3.org/2000/svg" xmlns:xlink="http://www.w3.org/1999/xlink" 
	 viewBox="0 0 512.001 512.001" xml:space="preserve">
<polygon style="fill:#55B9D3;" points="503.829,166.127 503.829,503.828 471.148,503.828 405.787,297.394 471.148,166.127 "/>
<polygon style="fill:#8CE6FE;" points="471.148,166.127 471.148,503.828 8.172,503.828 8.172,166.127 256,111.659 394.196,166.127 
	"/>
<polygon style="fill:#FFD686;" points="373.989,462.432 386.723,503.828 354.043,503.828 311.808,429.751 "/>
<polygon style="fill:#FFEDC6;" points="344.489,462.432 354.043,503.828 125.278,503.828 138.012,462.432 241.251,440.645 "/>
<polygon style="fill:#FEC14D;" points="361.254,421.036 373.989,462.432 344.489,462.432 302.255,388.356 "/>
<g>
	<polygon style="fill:#FFD686;" points="334.935,421.036 344.489,462.432 138.012,462.432 150.747,421.036 256,399.249 	"/>
	<polygon style="fill:#FFD686;" points="361.254,421.036 334.935,421.036 292.701,346.96 348.509,379.641 	"/>
</g>
<polygon style="fill:#FFEDC6;" points="325.382,379.641 334.935,421.036 150.747,421.036 163.492,379.641 244.437,357.854 "/>
<polygon style="fill:#FEC14D;" points="335.774,338.245 348.509,379.641 325.382,379.641 283.147,305.565 "/>
<g>
	<polygon style="fill:#FFD686;" points="315.828,338.245 325.382,379.641 163.492,379.641 176.227,338.245 246.027,316.458 	"/>
	<polygon style="fill:#FFD686;" points="323.04,296.85 335.774,338.245 315.828,338.245 289.17,317.548 306.274,296.85 	"/>
</g>
<polygon style="fill:#FFEDC6;" points="306.274,296.85 315.828,338.245 176.227,338.245 188.961,296.85 "/>
<path style="fill:#7F9058;" d="M363.716,112.803c-8.911-15.61-30.916-28.378-48.89-28.378h-32.681l79.371,81.691l32.681,0.011
	L363.716,112.803z"/>
<path style="fill:#95AC66;" d="M361.516,166.116l-159.983-0.022V84.425h80.612c17.974,0,39.979,12.767,48.89,28.378L361.516,166.116
	z"/>
<path style="fill:#AAC36D;" d="M247.34,112.846l-18.704-32.724c-8.911-15.61-30.916-28.378-48.89-28.378h-32.681l98.042,114.382
	h32.681L247.34,112.846z"/>
<path style="fill:#BFDB74;" d="M195.955,80.122l49.152,86.005H8.172V51.744h138.893C165.039,51.744,187.044,64.512,195.955,80.122z"
	/>
<polygon style="fill:#AAC36D;" points="454.263,8.17 503.829,127.999 454.263,127.999 443.37,87.149 "/>
<polygon style="fill:#CAED73;" points="454.263,8.17 454.263,127.999 404.698,127.999 "/>
<g>
	<path style="fill:#FFFFFF;" d="M416.681,206.978H8.172c-4.513,0-8.17-3.658-8.17-8.17c0-4.512,3.657-8.17,8.17-8.17h408.509
		c4.513,0,8.17,3.658,8.17,8.17C424.851,203.32,421.193,206.978,416.681,206.978z"/>
	<path style="fill:#FFFFFF;" d="M503.829,239.659H226.043c-4.513,0-8.17-3.658-8.17-8.17s3.657-8.17,8.17-8.17h277.786
		c4.513,0,8.17,3.658,8.17,8.17S508.341,239.659,503.829,239.659z"/>
	<path style="fill:#FFFFFF;" d="M193.362,239.659H95.32c-4.513,0-8.17-3.658-8.17-8.17s3.657-8.17,8.17-8.17h98.042
		c4.513,0,8.17,3.658,8.17,8.17S197.875,239.659,193.362,239.659z"/>
	<path style="fill:#FFFFFF;" d="M503.829,305.02H357.23c-4.513,0-8.17-3.658-8.17-8.17s3.657-8.17,8.17-8.17h146.599
		c4.513,0,8.17,3.658,8.17,8.17S508.341,305.02,503.829,305.02z"/>
	<path style="fill:#FFFFFF;" d="M134.986,370.381H8.172c-4.513,0-8.17-3.658-8.17-8.17s3.657-8.17,8.17-8.17h126.814
		c4.513,0,8.17,3.658,8.17,8.17S139.499,370.381,134.986,370.381z"/>
	<path style="fill:#FFFFFF;" d="M124.603,403.062h-51.07c-4.513,0-8.17-3.658-8.17-8.17s3.657-8.17,8.17-8.17h51.07
		c4.513,0,8.17,3.658,8.17,8.17S129.115,403.062,124.603,403.062z"/>
</g>
<path d="M8.172,59.915h171.574c15.145,0,34.288,11.109,41.801,24.259l42.162,73.783H73.533c-4.513,0-8.17,3.658-8.17,8.17
	c0,4.512,3.657,8.17,8.17,8.17H277.77c0.05,0,226.059,0,226.059,0c4.513,0,8.17-3.658,8.17-8.17c0-4.512-3.657-8.17-8.17-8.17
	h-41.396V136.17h41.396c2.728,0,5.276-1.362,6.792-3.63c1.516-2.268,1.8-5.143,0.757-7.664L461.813,5.047
	C460.549,1.992,457.57,0,454.263,0c-3.306,0-6.287,1.992-7.55,5.047l-49.566,119.829c-1.043,2.521-0.758,5.396,0.757,7.664
	c1.517,2.268,4.064,3.63,6.792,3.63h41.396v21.787h-47.158l-28.121-49.21c-10.409-18.219-35.002-32.492-55.987-32.492h-45.27
	c-4.513,0-8.17,3.658-8.17,8.17s3.657,8.17,8.17,8.17h45.27c15.145,0,34.288,11.109,41.801,24.259l23.488,41.103h-97.586
	l-46.796-81.89c-10.409-18.219-35.002-32.492-55.987-32.492H8.172c-4.513,0-8.17,3.658-8.17,8.17S3.659,59.915,8.172,59.915z
	 M454.263,29.546l37.344,90.284h-74.689L454.263,29.546z"/>
<path d="M8.172,174.297h32.681c4.513,0,8.17-3.658,8.17-8.17c0-4.512-3.657-8.17-8.17-8.17H8.172c-4.513,0-8.17,3.658-8.17,8.17
	C0.002,170.639,3.659,174.297,8.172,174.297z"/>
<path d="M330.853,294.474c-0.122-0.402-0.28-0.788-0.46-1.16c-0.026-0.056-0.052-0.111-0.08-0.167
	c-0.174-0.342-0.371-0.671-0.59-0.984c-0.039-0.056-0.081-0.108-0.122-0.162c-0.215-0.291-0.446-0.569-0.696-0.828
	c-0.023-0.024-0.044-0.049-0.066-0.073c-0.266-0.269-0.556-0.513-0.856-0.743c-0.06-0.046-0.119-0.09-0.18-0.134
	c-0.307-0.221-0.627-0.424-0.964-0.601c-0.037-0.02-0.076-0.036-0.114-0.054c-0.326-0.166-0.664-0.308-1.014-0.429
	c-0.045-0.015-0.087-0.034-0.133-0.048c-0.363-0.119-0.737-0.209-1.122-0.277c-0.075-0.013-0.151-0.024-0.227-0.035
	c-0.391-0.058-0.786-0.097-1.193-0.097H188.964c-0.406,0-0.803,0.039-1.193,0.097c-0.076,0.011-0.151,0.022-0.227,0.035
	c-0.383,0.068-0.758,0.158-1.122,0.277c-0.045,0.015-0.088,0.033-0.133,0.049c-0.35,0.121-0.687,0.265-1.013,0.429
	c-0.038,0.02-0.077,0.035-0.114,0.054c-0.337,0.178-0.657,0.38-0.964,0.601c-0.061,0.044-0.12,0.089-0.18,0.134
	c-0.302,0.23-0.59,0.474-0.856,0.743c-0.023,0.023-0.044,0.049-0.066,0.073c-0.251,0.259-0.481,0.537-0.696,0.828
	c-0.04,0.054-0.083,0.107-0.121,0.162c-0.22,0.313-0.416,0.642-0.59,0.984c-0.028,0.054-0.053,0.111-0.081,0.167
	c-0.18,0.373-0.338,0.758-0.46,1.16l-63.678,206.952c-1.328,4.313,1.093,8.885,5.405,10.212c4.313,1.325,8.885-1.093,10.212-5.406
	l10.962-35.63h223.903l10.962,35.629c1.081,3.513,4.313,5.769,7.805,5.769c0.795,0,1.606-0.117,2.406-0.363
	c4.313-1.327,6.733-5.899,5.405-10.212L330.853,294.474z M182.26,346.416h147.48l7.709,25.055H174.551L182.26,346.416z
	 M317.003,305.02l7.709,25.055H187.288l7.709-25.055H317.003z M149.077,454.262l7.709-25.055h82.874c4.513,0,8.17-3.658,8.17-8.17
	s-3.657-8.17-8.17-8.17h-77.847l7.709-25.055h172.955l7.709,25.055h-77.847c-4.513,0-8.17,3.658-8.17,8.17s3.657,8.17,8.17,8.17
	h82.874l7.709,25.055H149.077z"/>
</svg>