<?xml version="1.0" encoding="iso-8859-1"?>
<!-- Uploaded to: SVG Repo, www.svgrepo.com, Generator: SVG Repo Mixer Tools -->
<svg height="800px" width="800px" version="1.1" id="Layer_1" xmlns="http://www.w3.org/2000/svg" xmlns:xlink="http://www.w3.org/1999/xlink" 
	 viewBox="0 0 512 512" xml:space="preserve">
<g>
	<polygon style="fill:#D6D0C7;" points="353.103,512 494.345,512 494.345,211.862 353.103,211.862 	"/>
	<polygon style="fill:#ADAAA6;" points="353.103,512 158.897,512 158.897,105.931 256,0 353.103,105.931 	"/>
	<g>
		<polygon style="fill:#7281A4;" points="158.897,105.931 26.483,105.931 0,211.862 158.897,211.862 		"/>
		<polygon style="fill:#7281A4;" points="512,211.862 485.517,105.931 353.103,105.931 353.103,211.862 		"/>
	</g>
	<polygon style="fill:#D6D0C7;" points="17.655,512 158.897,512 158.897,211.862 17.655,211.862 	"/>
	<polygon style="fill:#9E9086;" points="203.034,512 308.966,512 308.966,370.759 203.034,370.759 	"/>
	<path style="fill:#ADAAA6;" d="M282.483,450.207h-8.828c-4.873,0-8.828-3.955-8.828-8.828s3.955-8.828,8.828-8.828h8.828
		c4.873,0,8.828,3.955,8.828,8.828S287.356,450.207,282.483,450.207"/>
	<g>
		<path style="fill:#28BAE8;" d="M256,176.552L256,176.552c-24.373,0-44.138-19.765-44.138-44.138S231.627,88.276,256,88.276
			s44.138,19.765,44.138,44.138S280.373,176.552,256,176.552"/>
		<polygon style="fill:#28BAE8;" points="52.966,317.793 123.586,317.793 123.586,247.172 52.966,247.172 		"/>
	</g>
	<polygon style="fill:#1E94AF;" points="79.448,317.793 97.103,317.793 97.103,247.172 79.448,247.172 	"/>
	<polygon style="fill:#28BAE8;" points="220.69,317.793 291.31,317.793 291.31,247.172 220.69,247.172 	"/>
	<polygon style="fill:#1E94AF;" points="247.172,317.793 264.828,317.793 264.828,247.172 247.172,247.172 	"/>
	<polygon style="fill:#28BAE8;" points="52.966,423.724 123.586,423.724 123.586,353.103 52.966,353.103 	"/>
	<polygon style="fill:#1E94AF;" points="79.448,423.724 97.103,423.724 97.103,353.103 79.448,353.103 	"/>
	<polygon style="fill:#28BAE8;" points="388.414,317.793 459.034,317.793 459.034,247.172 388.414,247.172 	"/>
	<polygon style="fill:#1E94AF;" points="414.897,317.793 432.552,317.793 432.552,247.172 414.897,247.172 	"/>
	<polygon style="fill:#28BAE8;" points="388.414,423.724 459.034,423.724 459.034,353.103 388.414,353.103 	"/>
	<polygon style="fill:#1E94AF;" points="414.897,423.724 432.552,423.724 432.552,353.103 414.897,353.103 	"/>
	<g>
		<path style="fill:#ADAAA6;" d="M132.414,326.621H44.138c-4.873,0-8.828-3.955-8.828-8.828c0-4.873,3.955-8.828,8.828-8.828h88.276
			c4.873,0,8.828,3.955,8.828,8.828C141.241,322.666,137.287,326.621,132.414,326.621"/>
		<path style="fill:#ADAAA6;" d="M132.414,432.552H44.138c-4.873,0-8.828-3.955-8.828-8.828c0-4.873,3.955-8.828,8.828-8.828h88.276
			c4.873,0,8.828,3.955,8.828,8.828C141.241,428.597,137.287,432.552,132.414,432.552"/>
		<path style="fill:#ADAAA6;" d="M467.862,326.621h-88.276c-4.873,0-8.828-3.955-8.828-8.828c0-4.873,3.955-8.828,8.828-8.828
			h88.276c4.882,0,8.828,3.955,8.828,8.828C476.69,322.666,472.744,326.621,467.862,326.621"/>
		<path style="fill:#ADAAA6;" d="M467.862,432.552h-88.276c-4.873,0-8.828-3.955-8.828-8.828c0-4.873,3.955-8.828,8.828-8.828
			h88.276c4.882,0,8.828,3.955,8.828,8.828C476.69,428.597,472.744,432.552,467.862,432.552"/>
	</g>
	<path style="fill:#D6D0C7;" d="M300.138,326.621h-88.276c-4.873,0-8.828-3.955-8.828-8.828c0-4.873,3.955-8.828,8.828-8.828h88.276
		c4.873,0,8.828,3.955,8.828,8.828C308.966,322.666,305.011,326.621,300.138,326.621"/>
	<g>
		<polygon style="fill:#ADAAA6;" points="353.103,485.517 494.345,485.517 494.345,467.862 353.103,467.862 		"/>
		<polygon style="fill:#ADAAA6;" points="17.655,485.517 158.897,485.517 158.897,467.862 17.655,467.862 		"/>
	</g>
	<g>
		<path style="fill:#1E94AF;" d="M247.172,89.166v86.493c2.851,0.583,5.8,0.892,8.828,0.892s5.976-0.309,8.828-0.892V89.166
			c-2.851-0.583-5.8-0.892-8.828-0.892S250.024,88.583,247.172,89.166"/>
		<path style="fill:#1E94AF;" d="M300.138,132.414c0-3.028-0.309-5.976-0.892-8.828h-86.493c-0.583,2.851-0.892,5.8-0.892,8.828
			c0,3.028,0.309,5.976,0.892,8.828h86.493C299.829,138.39,300.138,135.442,300.138,132.414"/>
	</g>
</g>
</svg>