<?xml version="1.0" encoding="utf-8"?>
<!-- Uploaded to: SVG Repo, www.svgrepo.com, Generator: SVG Repo Mixer Tools -->
<svg xmlns="http://www.w3.org/2000/svg" xmlns:xlink="http://www.w3.org/1999/xlink" version="1.1" id="windmill"  viewBox="0 0 198.5257 228" enable-background="new 0 0 198.5257 228" xml:space="preserve" width="512" height="512">
<g>
	<path fill="#D0E8FF" d="M88.6107,101.6406c-1.8477-0.3945-3.7891,0.0586-5.4609,1.2695l-49.1797,35.7422l0.3984,0.6953   l55.543-24.7227c1.8906-0.8398,3.2539-2.293,3.8398-4.0898c0.582-1.7891,0.3359-3.7578-0.6914-5.5352   C92.0365,103.2266,90.4544,102.0312,88.6107,101.6406z"/>
	<path fill="#D0E8FF" d="M116.7513,73.8242c1.2656-1.4062,1.8438-3.3125,1.6289-5.3633L112.013,8h-0.7969l-6.3672,60.4609   c-0.2148,2.0586,0.3633,3.9648,1.625,5.3711C108.9896,76.625,114.2162,76.6328,116.7513,73.8242z"/>
	<path fill="#D0E8FF" d="M111.6146,108c6.6172,0,12-5.3828,12-12s-5.3828-12-12-12s-12,5.3828-12,12S104.9974,108,111.6146,108z"/>
	<path fill="#D0E8FF" d="M135.9388,101.5039c-0.4414,0-0.8828,0.043-1.3203,0.1367c-1.8438,0.3906-3.4258,1.5859-4.4492,3.3594   c-1.0273,1.7773-1.2734,3.7461-0.6914,5.5352c0.5859,1.7969,1.9492,3.25,3.8398,4.0898l55.543,24.7227l0.3984-0.6953   l-49.1797-35.7422C138.8021,101.9844,137.3685,101.5039,135.9388,101.5039z"/>
	<polygon fill="#5CB0FF" points="107.2669,116 99.9935,196 123.2357,196 115.9623,116  "/>
	<polygon fill="#5CB0FF" points="75.6146,204 75.6146,220 147.6146,220 147.6146,204 127.6146,204 95.6146,204  "/>
	<path fill="#1C71DA" d="M196.8763,134.3008l-52.0938-37.8594c-3.5273-2.5625-7.7227-3.5078-11.8242-2.625   c-0.5273,0.1118-1.01,0.3274-1.5146,0.4939c-0.5356-6.2683-3.8904-11.73-8.8794-15.012c0.0408-0.0442,0.092-0.074,0.1323-0.1187   c2.8008-3.1172,4.0938-7.2188,3.6367-11.5547l-6.7422-64.043C119.3802,1.5469,117.6615,0,115.6146,0h-8   c-2.0469,0-3.7656,1.5469-3.9766,3.582l-6.7422,64.043c-0.457,4.3438,0.832,8.4492,3.6328,11.5586   c0.0398,0.0442,0.0908,0.074,0.1311,0.1177c-4.9863,3.2822-8.3386,8.7429-8.8743,15.009   c-0.5046-0.1665-0.9873-0.3821-1.5146-0.4939c-4.1094-0.8867-8.3008,0.0625-11.8242,2.625l-52.0938,37.8594   c-1.6562,1.2031-2.1367,3.4609-1.1133,5.2344l4,6.9297c0.7344,1.2734,2.0781,2,3.4688,2c0.543,0,1.0977-0.1094,1.6211-0.3438   l58.832-26.1836c2.4668-1.0981,4.4543-2.7759,5.9688-4.8005L91.9608,196H71.6146c-2.2109,0-4,1.7891-4,4v24c0,2.2109,1.7891,4,4,4   h80c2.2109,0,4-1.7891,4-4v-24c0-2.2109-1.7891-4-4-4h-20.3462l-7.1694-78.863c1.5144,2.0247,3.502,3.7024,5.9688,4.8005   l58.832,26.1836c0.5273,0.2344,1.0781,0.3438,1.6211,0.3438c1.3906,0,2.7344-0.7266,3.4688-2l4-6.9297   C199.013,137.7617,198.5326,135.5039,196.8763,134.3008z M93.7513,110.5352c-0.5859,1.7969-1.9492,3.25-3.8398,4.0898   l-55.543,24.7227l-0.3984-0.6953l49.1797-35.7422c1.6719-1.2109,3.6133-1.6641,5.4609-1.2695   c1.8438,0.3906,3.4258,1.5859,4.4492,3.3594C94.0873,106.7773,94.3334,108.7461,93.7513,110.5352z M104.849,68.4609L111.2162,8   h0.7969l6.3672,60.4609c0.2148,2.0508-0.3633,3.957-1.6289,5.3633c-2.5352,2.8086-7.7617,2.8008-10.2773,0.0078   C105.2123,72.4258,104.6341,70.5195,104.849,68.4609z M111.6146,84c6.6172,0,12,5.3828,12,12s-5.3828,12-12,12s-12-5.3828-12-12   S104.9974,84,111.6146,84z M123.2357,196H99.9935l7.2734-80h8.6953L123.2357,196z M127.6146,204h20v16h-72v-16h20H127.6146z    M188.8607,139.3477l-55.543-24.7227c-1.8906-0.8398-3.2539-2.293-3.8398-4.0898c-0.582-1.7891-0.3359-3.7578,0.6914-5.5352   c1.0234-1.7734,2.6055-2.9688,4.4492-3.3594c0.4375-0.0938,0.8789-0.1367,1.3203-0.1367c1.4297,0,2.8633,0.4805,4.1406,1.4062   l49.1797,35.7422L188.8607,139.3477z"/>
</g>
<path fill="#FF5D5D" d="M4,66.8317c-1.0234,0-2.0479-0.3906-2.8281-1.1719c-1.5625-1.5615-1.5625-4.0947,0-5.6562l14.1426-14.1416  c1.5625-1.5625,4.0957-1.5625,5.6562,0c1.5625,1.5615,1.5625,4.0947,0,5.6562L6.8281,65.6598  C6.0469,66.441,5.0234,66.8317,4,66.8317z"/>
<path fill="#FF5D5D" d="M18.1426,66.8317c-1.0234,0-2.0469-0.3906-2.8281-1.1719L1.1719,51.5182  c-1.5625-1.5615-1.5625-4.0947,0-5.6562c1.5605-1.5625,4.0938-1.5625,5.6562,0l14.1426,14.1416  c1.5625,1.5615,1.5625,4.0947,0,5.6562C20.1904,66.441,19.166,66.8317,18.1426,66.8317z"/>
<path fill="#00D40B" d="M174,70.8317c-7.7197,0-14-6.2803-14-14s6.2803-14,14-14s14,6.2803,14,14S181.7197,70.8317,174,70.8317z   M174,50.8317c-3.3086,0-6,2.6914-6,6s2.6914,6,6,6s6-2.6914,6-6S177.3086,50.8317,174,50.8317z"/>
<path fill="#FFC504" d="M151.3135,173.4596c-1.0605,0-2.0781-0.4219-2.8281-1.1719l-11.3135-11.3145  c-1.5625-1.5615-1.5625-4.0947,0-5.6562l11.3135-11.3135c1.5605-1.5625,4.0957-1.5625,5.6562,0l11.3135,11.3135  c1.5625,1.5615,1.5625,4.0947,0,5.6562l-11.3135,11.3145C153.3916,173.0377,152.374,173.4596,151.3135,173.4596z M145.6562,158.1451  l5.6572,5.6572l5.6572-5.6572l-5.6572-5.6562L145.6562,158.1451z"/>
</svg>